<svg xmlns="http://www.w3.org/2000/svg" width="900" height="420" viewBox="0 0 900 420">
<rect width="100%" height="100%" fill="#fff"/><text x="76" y="30" font-size="22" font-weight="700" fill="#0f172a">???? GDP?World Bank?2020-2023?</text><text x="76" y="50" font-size="13" fill="#64748b">?????https://sjys-th73.onrender.com ????????current US$</text><line x1="76" y1="58.0" x2="856" y2="58.0" stroke="#e5e7eb"/><text x="64" y="62.0" text-anchor="end" font-size="13" fill="#64748b">18715207124287.21</text><line x1="76" y1="130.5" x2="856" y2="130.5" stroke="#e5e7eb"/><text x="64" y="134.5" text-anchor="end" font-size="13" fill="#64748b">14036405343215.41</text><line x1="76" y1="203.0" x2="856" y2="203.0" stroke="#e5e7eb"/><text x="64" y="207.0" text-anchor="end" font-size="13" fill="#64748b">9357603562143.61</text><line x1="76" y1="275.5" x2="856" y2="275.5" stroke="#e5e7eb"/><text x="64" y="279.5" text-anchor="end" font-size="13" fill="#64748b">4678801781071.80</text><line x1="76" y1="348.0" x2="856" y2="348.0" stroke="#e5e7eb"/><text x="64" y="352.0" text-anchor="end" font-size="13" fill="#64748b">0.00</text><polygon points="76.0,115.6 336.0,66.0 596.0,64.2 856.0,64.9 856.0,348 76.0,348" fill="#dbeafe" opacity="0.72"/><polyline points="76.0,115.6 336.0,66.0 596.0,64.2 856.0,64.9" fill="none" stroke="#2563eb" stroke-width="4" stroke-linejoin="round" stroke-linecap="round"/><circle cx="76.0" cy="115.6" r="3.4" fill="#2563eb"/><circle cx="336.0" cy="66.0" r="3.4" fill="#2563eb"/><circle cx="596.0" cy="64.2" r="3.4" fill="#2563eb"/><circle cx="856.0" cy="64.9" r="3.4" fill="#2563eb"/><text x="76.0" y="390" text-anchor="middle" font-size="13" fill="#64748b">2020</text><text x="336.0" y="390" text-anchor="middle" font-size="13" fill="#64748b">2021</text><text x="596.0" y="390" text-anchor="middle" font-size="13" fill="#64748b">2022</text><text x="856.0" y="390" text-anchor="middle" font-size="13" fill="#64748b">2023</text><text x="856" y="75.0" text-anchor="end" font-size="16" font-weight="700" fill="#1d4ed8">???18.27 ????</text></svg>