<svg xmlns="http://www.w3.org/2000/svg" width="900" height="460" viewBox="0 0 900 460"><rect width="100%" height="100%" fill="#fff"/><text x="120" y="30" font-size="22" font-weight="700" fill="#0f172a">??????? GDP ???2023?</text><text x="120" y="50" font-size="13" fill="#64748b">?????https://sjys-th73.onrender.com/compare????current US$??????????</text><text x="108" y="89.9" text-anchor="end" font-size="15" fill="#334155">美国</text><rect x="120" y="73.0" width="610" height="26.0" fill="#eff6ff"/><rect x="120" y="73.0" width="610.0" height="26.0" fill="#2563eb"/><text x="740.0" y="89.9" font-size="14" font-weight="700" fill="#0f172a">27.29 ????</text><text x="108" y="141.9" text-anchor="end" font-size="15" fill="#334155">中国</text><rect x="120" y="125.0" width="610" height="26.0" fill="#eff6ff"/><rect x="120" y="125.0" width="408.4" height="26.0" fill="#2563eb"/><text x="538.4" y="141.9" font-size="14" font-weight="700" fill="#0f172a">18.27 ????</text><text x="108" y="193.9" text-anchor="end" font-size="15" fill="#334155">德国</text><rect x="120" y="177.0" width="610" height="26.0" fill="#eff6ff"/><rect x="120" y="177.0" width="102.0" height="26.0" fill="#2563eb"/><text x="232.0" y="193.9" font-size="14" font-weight="700" fill="#0f172a">4.56 ????</text><text x="108" y="245.9" text-anchor="end" font-size="15" fill="#334155">日本</text><rect x="120" y="229.0" width="610" height="26.0" fill="#eff6ff"/><rect x="120" y="229.0" width="94.2" height="26.0" fill="#2563eb"/><text x="224.2" y="245.9" font-size="14" font-weight="700" fill="#0f172a">4.21 ????</text><text x="108" y="297.9" text-anchor="end" font-size="15" fill="#334155">印度</text><rect x="120" y="281.0" width="610" height="26.0" fill="#eff6ff"/><rect x="120" y="281.0" width="81.3" height="26.0" fill="#2563eb"/><text x="211.3" y="297.9" font-size="14" font-weight="700" fill="#0f172a">3.64 ????</text><text x="108" y="349.9" text-anchor="end" font-size="15" fill="#334155">英国</text><rect x="120" y="333.0" width="610" height="26.0" fill="#eff6ff"/><rect x="120" y="333.0" width="76.5" height="26.0" fill="#2563eb"/><text x="206.5" y="349.9" font-size="14" font-weight="700" fill="#0f172a">3.42 ????</text><text x="108" y="401.9" text-anchor="end" font-size="15" fill="#334155">法国</text><rect x="120" y="385.0" width="610" height="26.0" fill="#eff6ff"/><rect x="120" y="385.0" width="68.3" height="26.0" fill="#2563eb"/><text x="198.3" y="401.9" font-size="14" font-weight="700" fill="#0f172a">3.06 ????</text></svg>