<svg xmlns="http://www.w3.org/2000/svg" width="900" height="420" viewBox="0 0 900 420">
<rect width="100%" height="100%" fill="#fff"/><text x="76" y="30" font-size="22" font-weight="700" fill="#0f172a">??? HICP ???Eurostat?2023-2024?</text><text x="76" y="50" font-size="13" fill="#64748b">?????https://sjys-th73.onrender.com ????????%</text><line x1="76" y1="58.0" x2="856" y2="58.0" stroke="#e5e7eb"/><text x="64" y="62.0" text-anchor="end" font-size="13" fill="#64748b">9.54</text><line x1="76" y1="130.5" x2="856" y2="130.5" stroke="#e5e7eb"/><text x="64" y="134.5" text-anchor="end" font-size="13" fill="#64748b">7.15</text><line x1="76" y1="203.0" x2="856" y2="203.0" stroke="#e5e7eb"/><text x="64" y="207.0" text-anchor="end" font-size="13" fill="#64748b">4.77</text><line x1="76" y1="275.5" x2="856" y2="275.5" stroke="#e5e7eb"/><text x="64" y="279.5" text-anchor="end" font-size="13" fill="#64748b">2.38</text><line x1="76" y1="348.0" x2="856" y2="348.0" stroke="#e5e7eb"/><text x="64" y="352.0" text-anchor="end" font-size="13" fill="#64748b">0.00</text><polygon points="76.0,83.5 109.9,89.6 143.8,138.3 177.7,135.2 211.7,162.6 245.6,180.8 279.5,186.9 313.4,189.9 347.3,217.3 381.2,259.8 415.1,275.0 449.0,259.8 483.0,262.9 516.9,269.0 550.8,275.0 584.7,275.0 618.6,269.0 652.5,272.0 686.4,269.0 720.3,281.1 754.3,296.3 788.2,287.2 822.1,281.1 856.0,275.0 856.0,348 76.0,348" fill="#dbeafe" opacity="0.72"/><polyline points="76.0,83.5 109.9,89.6 143.8,138.3 177.7,135.2 211.7,162.6 245.6,180.8 279.5,186.9 313.4,189.9 347.3,217.3 381.2,259.8 415.1,275.0 449.0,259.8 483.0,262.9 516.9,269.0 550.8,275.0 584.7,275.0 618.6,269.0 652.5,272.0 686.4,269.0 720.3,281.1 754.3,296.3 788.2,287.2 822.1,281.1 856.0,275.0" fill="none" stroke="#2563eb" stroke-width="4" stroke-linejoin="round" stroke-linecap="round"/><circle cx="76.0" cy="83.5" r="3.4" fill="#2563eb"/><circle cx="109.9" cy="89.6" r="3.4" fill="#2563eb"/><circle cx="143.8" cy="138.3" r="3.4" fill="#2563eb"/><circle cx="177.7" cy="135.2" r="3.4" fill="#2563eb"/><circle cx="211.7" cy="162.6" r="3.4" fill="#2563eb"/><circle cx="245.6" cy="180.8" r="3.4" fill="#2563eb"/><circle cx="279.5" cy="186.9" r="3.4" fill="#2563eb"/><circle cx="313.4" cy="189.9" r="3.4" fill="#2563eb"/><circle cx="347.3" cy="217.3" r="3.4" fill="#2563eb"/><circle cx="381.2" cy="259.8" r="3.4" fill="#2563eb"/><circle cx="415.1" cy="275.0" r="3.4" fill="#2563eb"/><circle cx="449.0" cy="259.8" r="3.4" fill="#2563eb"/><circle cx="483.0" cy="262.9" r="3.4" fill="#2563eb"/><circle cx="516.9" cy="269.0" r="3.4" fill="#2563eb"/><circle cx="550.8" cy="275.0" r="3.4" fill="#2563eb"/><circle cx="584.7" cy="275.0" r="3.4" fill="#2563eb"/><circle cx="618.6" cy="269.0" r="3.4" fill="#2563eb"/><circle cx="652.5" cy="272.0" r="3.4" fill="#2563eb"/><circle cx="686.4" cy="269.0" r="3.4" fill="#2563eb"/><circle cx="720.3" cy="281.1" r="3.4" fill="#2563eb"/><circle cx="754.3" cy="296.3" r="3.4" fill="#2563eb"/><circle cx="788.2" cy="287.2" r="3.4" fill="#2563eb"/><circle cx="822.1" cy="281.1" r="3.4" fill="#2563eb"/><circle cx="856.0" cy="275.0" r="3.4" fill="#2563eb"/><text x="76.0" y="390" text-anchor="middle" font-size="13" fill="#64748b">2023-01</text><text x="211.7" y="390" text-anchor="middle" font-size="13" fill="#64748b">2023-05</text><text x="347.3" y="390" text-anchor="middle" font-size="13" fill="#64748b">2023-09</text><text x="483.0" y="390" text-anchor="middle" font-size="13" fill="#64748b">2024-01</text><text x="618.6" y="390" text-anchor="middle" font-size="13" fill="#64748b">2024-05</text><text x="754.3" y="390" text-anchor="middle" font-size="13" fill="#64748b">2024-09</text><text x="856.0" y="390" text-anchor="middle" font-size="13" fill="#64748b">2024-12</text><text x="856" y="265.0" text-anchor="end" font-size="16" font-weight="700" fill="#1d4ed8">???2.400 %</text></svg>