<svg xmlns="http://www.w3.org/2000/svg" width="900" height="420" viewBox="0 0 900 420">
<rect width="100%" height="100%" fill="#fff"/><text x="76" y="30" font-size="22" font-weight="700" fill="#0f172a">?? CPI ???BLS?2023-2025?</text><text x="76" y="50" font-size="13" fill="#64748b">?????https://sjys-th73.onrender.com ????????%</text><line x1="76" y1="58.0" x2="856" y2="58.0" stroke="#e5e7eb"/><text x="64" y="62.0" text-anchor="end" font-size="13" fill="#64748b">6.81</text><line x1="76" y1="130.5" x2="856" y2="130.5" stroke="#e5e7eb"/><text x="64" y="134.5" text-anchor="end" font-size="13" fill="#64748b">5.11</text><line x1="76" y1="203.0" x2="856" y2="203.0" stroke="#e5e7eb"/><text x="64" y="207.0" text-anchor="end" font-size="13" fill="#64748b">3.40</text><line x1="76" y1="275.5" x2="856" y2="275.5" stroke="#e5e7eb"/><text x="64" y="279.5" text-anchor="end" font-size="13" fill="#64748b">1.70</text><line x1="76" y1="348.0" x2="856" y2="348.0" stroke="#e5e7eb"/><text x="64" y="352.0" text-anchor="end" font-size="13" fill="#64748b">0.00</text><polygon points="76.0,78.5 98.9,94.2 121.9,138.5 144.8,137.1 167.8,172.0 190.7,217.2 213.6,207.9 236.6,189.4 259.5,190.9 282.5,209.5 305.4,214.5 328.4,206.7 351.3,216.4 374.2,213.5 397.2,199.5 420.1,204.8 443.1,209.8 466.0,221.5 488.9,222.7 511.9,236.9 534.8,244.6 557.8,238.1 580.7,232.1 603.6,225.7 626.6,220.6 649.5,228.7 672.5,246.5 695.4,248.9 718.4,246.7 741.3,233.8 764.2,231.2 787.2,222.8 810.1,219.2 833.1,233.1 856.0,235.0 856.0,348 76.0,348" fill="#dbeafe" opacity="0.72"/><polyline points="76.0,78.5 98.9,94.2 121.9,138.5 144.8,137.1 167.8,172.0 190.7,217.2 213.6,207.9 236.6,189.4 259.5,190.9 282.5,209.5 305.4,214.5 328.4,206.7 351.3,216.4 374.2,213.5 397.2,199.5 420.1,204.8 443.1,209.8 466.0,221.5 488.9,222.7 511.9,236.9 534.8,244.6 557.8,238.1 580.7,232.1 603.6,225.7 626.6,220.6 649.5,228.7 672.5,246.5 695.4,248.9 718.4,246.7 741.3,233.8 764.2,231.2 787.2,222.8 810.1,219.2 833.1,233.1 856.0,235.0" fill="none" stroke="#2563eb" stroke-width="4" stroke-linejoin="round" stroke-linecap="round"/><circle cx="76.0" cy="78.5" r="3.4" fill="#2563eb"/><circle cx="121.9" cy="138.5" r="3.4" fill="#2563eb"/><circle cx="167.8" cy="172.0" r="3.4" fill="#2563eb"/><circle cx="213.6" cy="207.9" r="3.4" fill="#2563eb"/><circle cx="259.5" cy="190.9" r="3.4" fill="#2563eb"/><circle cx="305.4" cy="214.5" r="3.4" fill="#2563eb"/><circle cx="351.3" cy="216.4" r="3.4" fill="#2563eb"/><circle cx="397.2" cy="199.5" r="3.4" fill="#2563eb"/><circle cx="443.1" cy="209.8" r="3.4" fill="#2563eb"/><circle cx="488.9" cy="222.7" r="3.4" fill="#2563eb"/><circle cx="534.8" cy="244.6" r="3.4" fill="#2563eb"/><circle cx="580.7" cy="232.1" r="3.4" fill="#2563eb"/><circle cx="626.6" cy="220.6" r="3.4" fill="#2563eb"/><circle cx="672.5" cy="246.5" r="3.4" fill="#2563eb"/><circle cx="718.4" cy="246.7" r="3.4" fill="#2563eb"/><circle cx="764.2" cy="231.2" r="3.4" fill="#2563eb"/><circle cx="810.1" cy="219.2" r="3.4" fill="#2563eb"/><circle cx="856.0" cy="235.0" r="3.4" fill="#2563eb"/><text x="76.0" y="390" text-anchor="middle" font-size="13" fill="#64748b">2023-01</text><text x="213.6" y="390" text-anchor="middle" font-size="13" fill="#64748b">2023-07</text><text x="351.3" y="390" text-anchor="middle" font-size="13" fill="#64748b">2024-01</text><text x="488.9" y="390" text-anchor="middle" font-size="13" fill="#64748b">2024-07</text><text x="626.6" y="390" text-anchor="middle" font-size="13" fill="#64748b">2025-01</text><text x="764.2" y="390" text-anchor="middle" font-size="13" fill="#64748b">2025-07</text><text x="856.0" y="390" text-anchor="middle" font-size="13" fill="#64748b">2025-12</text><text x="856" y="225.0" text-anchor="end" font-size="16" font-weight="700" fill="#1d4ed8">???2.653 %</text></svg>