<svg xmlns="http://www.w3.org/2000/svg" width="900" height="420" viewBox="0 0 900 420">
<rect width="100%" height="100%" fill="#fff"/><text x="76" y="30" font-size="22" font-weight="700" fill="#0f172a">?? CPI ???OECD?2024?</text><text x="76" y="50" font-size="13" fill="#64748b">?????https://sjys-th73.onrender.com ????????%</text><line x1="76" y1="58.0" x2="856" y2="58.0" stroke="#e5e7eb"/><text x="64" y="62.0" text-anchor="end" font-size="13" fill="#64748b">3.60</text><line x1="76" y1="130.5" x2="856" y2="130.5" stroke="#e5e7eb"/><text x="64" y="134.5" text-anchor="end" font-size="13" fill="#64748b">2.70</text><line x1="76" y1="203.0" x2="856" y2="203.0" stroke="#e5e7eb"/><text x="64" y="207.0" text-anchor="end" font-size="13" fill="#64748b">1.80</text><line x1="76" y1="275.5" x2="856" y2="275.5" stroke="#e5e7eb"/><text x="64" y="279.5" text-anchor="end" font-size="13" fill="#64748b">0.90</text><line x1="76" y1="348.0" x2="856" y2="348.0" stroke="#e5e7eb"/><text x="64" y="352.0" text-anchor="end" font-size="13" fill="#64748b">0.00</text><polygon points="76.0,99.1 146.9,94.1 217.8,68.0 288.7,77.7 359.6,84.8 430.5,108.8 501.5,114.9 572.4,144.2 643.3,151.5 714.2,138.8 785.1,126.6 856.0,115.5 856.0,348 76.0,348" fill="#dbeafe" opacity="0.72"/><polyline points="76.0,99.1 146.9,94.1 217.8,68.0 288.7,77.7 359.6,84.8 430.5,108.8 501.5,114.9 572.4,144.2 643.3,151.5 714.2,138.8 785.1,126.6 856.0,115.5" fill="none" stroke="#2563eb" stroke-width="4" stroke-linejoin="round" stroke-linecap="round"/><circle cx="76.0" cy="99.1" r="3.4" fill="#2563eb"/><circle cx="146.9" cy="94.1" r="3.4" fill="#2563eb"/><circle cx="217.8" cy="68.0" r="3.4" fill="#2563eb"/><circle cx="288.7" cy="77.7" r="3.4" fill="#2563eb"/><circle cx="359.6" cy="84.8" r="3.4" fill="#2563eb"/><circle cx="430.5" cy="108.8" r="3.4" fill="#2563eb"/><circle cx="501.5" cy="114.9" r="3.4" fill="#2563eb"/><circle cx="572.4" cy="144.2" r="3.4" fill="#2563eb"/><circle cx="643.3" cy="151.5" r="3.4" fill="#2563eb"/><circle cx="714.2" cy="138.8" r="3.4" fill="#2563eb"/><circle cx="785.1" cy="126.6" r="3.4" fill="#2563eb"/><circle cx="856.0" cy="115.5" r="3.4" fill="#2563eb"/><text x="76.0" y="390" text-anchor="middle" font-size="13" fill="#64748b">2024-01</text><text x="217.8" y="390" text-anchor="middle" font-size="13" fill="#64748b">2024-03</text><text x="359.6" y="390" text-anchor="middle" font-size="13" fill="#64748b">2024-05</text><text x="501.5" y="390" text-anchor="middle" font-size="13" fill="#64748b">2024-07</text><text x="643.3" y="390" text-anchor="middle" font-size="13" fill="#64748b">2024-09</text><text x="785.1" y="390" text-anchor="middle" font-size="13" fill="#64748b">2024-11</text><text x="856.0" y="390" text-anchor="middle" font-size="13" fill="#64748b">2024-12</text><text x="856" y="105.5" text-anchor="end" font-size="16" font-weight="700" fill="#1d4ed8">???2.888 %</text></svg>